<svg id="Red_MarkType" xmlns="http://www.w3.org/2000/svg" width="390" height="57.709" viewBox="0 0 390 57.709">
  <path id="Pfad_59344" data-name="Pfad 59344" d="M15.8,0H0V47.525H15.8l.291,0A23.719,23.719,0,1,0,35.537,10.184h-.065A24,24,0,0,0,15.8,0ZM35.471,10.184A23.78,23.78,0,0,0,16.091,47.523,23.863,23.863,0,0,0,39.767,23.763,23.514,23.514,0,0,0,35.471,10.184Z" fill="#77152a" fill-rule="evenodd"/>
  <path id="Pfad_59345" data-name="Pfad 59345" d="M98.6,20.749c-1.319-2.085-3.787-3.574-7.446-3.574-6,0-10.425,4.468-10.425,11.106,0,7.063,4.425,11.106,10.425,11.106A8.78,8.78,0,0,0,98.6,35.641l.468,3.489h3.021V9.345H98.6ZM91.489,36.279c-4.3,0-7.191-3.276-7.191-8s2.893-8,7.191-8c4.255,0,7.148,3.319,7.148,8.084C98.638,33,95.744,36.279,91.489,36.279Z" fill="#77152a"/>
  <path id="Pfad_59346" data-name="Pfad 59346" d="M125.472,35.939c-.979,0-1.4-.3-1.4-1.447V25c0-5.063-3.191-7.829-8.722-7.829-5.234,0-8.681,2.51-9.191,6.766h3.489c.425-2.213,2.468-3.659,5.531-3.659,3.4,0,5.4,1.7,5.4,4.51V26.28H114.2c-5.7,0-8.723,2.425-8.723,6.765,0,3.957,3.234,6.34,8,6.34a8.256,8.256,0,0,0,7.276-3.617c.043,2.128,1.022,3.361,3.915,3.361h1.915V35.939Zm-4.894-5.659c0,3.617-2.51,6.127-6.85,6.127-2.894,0-4.723-1.447-4.723-3.574,0-2.468,1.744-3.617,4.85-3.617h6.723Z" fill="#77152a"/>
  <path id="Pfad_59347" data-name="Pfad 59347" d="M132.057,47.64c3.064,0,3.83-1.4,5.234-4.851l10.425-25.36h-3.7l-6.893,17.318L130.015,17.43h-3.7l8.765,21.828L134.014,41.9c-.808,2.042-1.148,2.553-3.148,2.553h-3.83V47.64Z" fill="#77152a"/>
  <path id="Pfad_59348" data-name="Pfad 59348" d="M229.6,39.514l8.6-21.7h-3.659l-6.978,17.743L220.54,17.814h-3.745l8.6,21.7Z" fill="#77152a"/>
  <path id="Pfad_59349" data-name="Pfad 59349" d="M258.858,29.43c.042-.511.085-1.277.085-1.574-.17-6.425-4.17-10.3-10.3-10.3s-10.3,4.51-10.3,11.106c0,6.638,4.255,11.106,10.766,11.106a9.234,9.234,0,0,0,9.446-7.531h-3.532c-.723,2.808-3.106,4.425-6.17,4.425-4.127,0-6.723-2.893-6.85-7.021V29.43Zm-10.17-8.808c3.617,0,6.17,2.085,6.51,5.829H242.221A6.423,6.423,0,0,1,248.688,20.622Z" fill="#77152a"/>
  <path id="Pfad_59350" data-name="Pfad 59350" d="M272.808,17.559A8.182,8.182,0,0,0,266,20.75l-.468-2.936h-3.021v21.7H266V27.983c0-4.3,2.426-7.233,6.213-7.233,3.489,0,5.531,2.3,5.531,6.638V39.514h3.489V27.175C281.233,20.154,277.4,17.559,272.808,17.559Z" fill="#77152a"/>
  <path id="Pfad_59351" data-name="Pfad 59351" d="M303.282,39.514V36.323h-7.276c-1.872,0-2.51-.681-2.51-2.51V21.005h9.446V17.814H293.5l.563-6.085H290.57l-.563,6.085h-6.894v3.191h6.894v12.85c0,3.829,1.489,5.659,5.659,5.659Z" fill="#77152a"/>
  <path id="Pfad_59352" data-name="Pfad 59352" d="M320.931,29.26c0,4.383-2.382,7.319-6.127,7.319-3.4,0-5.446-2.3-5.446-6.638V17.814h-3.489V30.153c0,7.021,3.787,9.616,8.339,9.616a8.158,8.158,0,0,0,6.723-3.149l.468,2.893h3.021v-21.7h-3.489Z" fill="#77152a"/>
  <path id="Pfad_59353" data-name="Pfad 59353" d="M347.09,21.218v-3.4h-3.616c-4.255,0-6.3,2.085-7.276,3.744V17.814h-8.766v3.191h5.362V36.323h-5.362v3.191H345.9V36.323h-9.616V28.579c0-3.447,1.574-7.361,6.808-7.361Z" fill="#77152a"/>
  <path id="Pfad_59354" data-name="Pfad 59354" d="M368.91,29.43c.042-.511.085-1.277.085-1.574-.171-6.425-4.17-10.3-10.3-10.3s-10.3,4.51-10.3,11.106c0,6.638,4.255,11.106,10.765,11.106a9.235,9.235,0,0,0,9.447-7.531H365.08c-.723,2.808-3.106,4.425-6.17,4.425-4.127,0-6.723-2.893-6.85-7.021V29.43Zm-10.17-8.808c3.617,0,6.17,2.085,6.51,5.829H352.272A6.425,6.425,0,0,1,358.74,20.622Z" fill="#77152a"/>
  <path id="Pfad_59355" data-name="Pfad 59355" d="M381.32,39.77c4.808,0,8.68-2.51,8.68-6.553,0-4.808-3.957-5.744-8.893-6.34-3.148-.383-5.446-.681-5.446-3.064,0-2,2.042-3.276,5.063-3.276,2.979,0,5.021,1.66,5.277,3.872h3.574c-.341-4.51-3.915-6.851-8.851-6.851-4.893,0-8.51,2.553-8.51,6.51,0,4.51,3.872,5.489,8.723,6.085,3.234.383,5.617.6,5.617,3.319,0,2-2.17,3.319-5.234,3.319-3.617,0-5.872-1.872-6-4.425h-3.574C371.831,37.132,375.7,39.77,381.32,39.77Z" fill="#77152a"/>
  <path id="Pfad_59356" data-name="Pfad 59356" d="M187.6,21.965a4.409,4.409,0,0,1-.022,2.542l-3.766,15.4,7.061-.709v-.578l-.265-.035a3.313,3.313,0,0,1-1.341-.4,1.181,1.181,0,0,1-.532-.751,3.715,3.715,0,0,1,0-1.4,21.6,21.6,0,0,1,.479-2.17l2.261-9.282a6.8,6.8,0,0,0-.268-4.806,3.485,3.485,0,0,0-3.237-1.745c-2.186,0-4.266,1.3-6.122,3.3a26.639,26.639,0,0,0-3.73,5.374l2.173-9.028-6.612,1.96v.4l.09.082c.975.881,1.507,2.509.811,5.361l-1.46,6.257c-.755,3.369-1.218,5.278-2.505,7.231l-.043.066v.442h5.8v-.4l-.011-.036c-.5-1.631-.278-3.1.287-5.486l.276-1.206a42.269,42.269,0,0,1,5.164-8.681c1.567-1.872,2.91-2.655,4.048-2.655a1.623,1.623,0,0,1,.934.249A1.447,1.447,0,0,1,187.6,21.965Zm-3.175-2.471c-2.463,1.615-4.741,4.74-6.6,8.434q-.326.649-.635,1.321C179.15,24.988,181.67,21.3,184.422,19.494ZM170.883,39.206v-.085c1.318-2,1.789-3.957,2.542-7.319l1.459-6.255c.706-2.893.189-4.638-.894-5.617l.046.043c.041.038.08.077.119.118.968,1,1.4,2.715.729,5.456L173.425,31.8c-.729,3.252-1.193,5.19-2.417,7.124-.041.065-.082.13-.125.195Z" fill="#77152a" fill-rule="evenodd"/>
  <path id="Pfad_59357" data-name="Pfad 59357" d="M206.914,34.293l.1-.206-.8-.515-.175.253c-1.612,2.33-3.5,3.358-5.481,3.358a3.673,3.673,0,0,1-2.949-1.252,7.052,7.052,0,0,1-1.26-4.638,15.487,15.487,0,0,1,.723-4.656c4.649-.02,7.813-.634,9.833-1.6,2.069-.985,2.955-2.346,2.955-3.79a2.778,2.778,0,0,0-1.612-2.539,6.953,6.953,0,0,0-3.17-.677,12.458,12.458,0,0,0-9.182,4.526,15.333,15.333,0,0,0-3.886,9.924,8.3,8.3,0,0,0,1.785,5.578,6.305,6.305,0,0,0,4.927,2.064C202.273,40.125,205.235,37.935,206.914,34.293Zm-2.716,1.92a9.48,9.48,0,0,0,2.1-2.241q-.084.12-.168.236A9.238,9.238,0,0,1,204.2,36.214ZM204.6,19.36a1.892,1.892,0,0,1,1.3.37,1.505,1.505,0,0,1,.409,1.179,3.027,3.027,0,0,1-1.572,2.521c-1.249.856-3.451,1.666-7.264,2.123a11.91,11.91,0,0,1,2.985-4.4A6.316,6.316,0,0,1,204.6,19.36Z" fill="#77152a" fill-rule="evenodd"/>
  <path id="Pfad_59358" data-name="Pfad 59358" d="M171.913,25.846a8.335,8.335,0,0,0-1.882-5.714,6.7,6.7,0,0,0-5.16-2.1c-3.055,0-6.032,1.831-8.228,4.5a15.786,15.786,0,0,0-3.662,9.784,8.33,8.33,0,0,0,1.882,5.714,6.7,6.7,0,0,0,5.159,2.1c3.056,0,6.032-1.831,8.228-4.5A15.782,15.782,0,0,0,171.913,25.846ZM157.131,33.42A20.8,20.8,0,0,1,159.5,23.362c1.444-2.553,3.342-4,5.232-4a2.563,2.563,0,0,1,1.362.347,2.63,2.63,0,0,1,.932,1.023,8.763,8.763,0,0,1,.739,4.052,20.541,20.541,0,0,1-2.4,10.035c-1.457,2.544-3.354,3.981-5.2,3.981a2.547,2.547,0,0,1-1.362-.351,2.664,2.664,0,0,1-.932-1.029A8.627,8.627,0,0,1,157.131,33.42Z" fill="#77152a" fill-rule="evenodd"/>
</svg>
